<?xml version="1.0" standalone="no"?>
<!DOCTYPE svg PUBLIC "-//W3C//DTD SVG 20010904//EN"
 "http://www.w3.org/TR/2001/REC-SVG-20010904/DTD/svg10.dtd">
<svg version="1.0" xmlns="http://www.w3.org/2000/svg"
 width="543.000000pt" height="542.000000pt" viewBox="0 0 543.000000 542.000000"
 preserveAspectRatio="xMidYMid meet">

<g transform="translate(0.000000,542.000000) scale(0.100000,-0.100000)"
fill="#000000" stroke="none">
<path d="M3525 3643 c-309 -28 -614 -191 -818 -437 -41 -50 -41 -49 43 23 429
370 950 450 1427 221 99 -48 237 -140 318 -212 l60 -53 -40 48 c-222 275 -629
443 -990 410z"/>
<path d="M873 2546 c-84 -238 -153 -436 -153 -440 0 -3 28 -6 63 -6 l63 0 33
100 32 100 166 -2 166 -3 32 -95 32 -95 63 -3 62 -3 -6 28 c-4 15 -22 71 -41
123 -29 82 -145 411 -230 653 l-28 77 -51 0 -51 0 -152 -434z m271 61 c31 -98
56 -182 56 -187 0 -6 -52 -10 -125 -10 -69 0 -125 2 -125 4 0 3 45 147 107
339 8 27 19 45 23 40 4 -4 33 -88 64 -186z"/>
<path d="M1572 2586 c3 -382 4 -395 24 -423 27 -36 56 -50 122 -59 l52 -7 0
61 0 61 -37 3 -38 3 -3 378 -2 377 -60 0 -61 0 3 -394z"/>
<path d="M2605 2969 c-31 -18 -45 -40 -45 -73 1 -59 58 -97 112 -75 73 30 61
141 -17 154 -16 3 -39 0 -50 -6z"/>
<path d="M2902 2581 l3 -400 29 -30 c19 -20 45 -34 78 -40 87 -19 88 -19 88
48 l0 60 -37 3 -38 3 -3 378 -2 377 -60 0 -61 0 3 -399z"/>
<path d="M2110 2714 c-19 -8 -45 -25 -57 -36 l-23 -21 0 31 0 32 -60 0 -60 0
0 -435 0 -435 60 0 60 0 0 160 0 160 45 -32 c110 -78 256 -33 300 91 18 53 21
303 4 362 -15 50 -64 108 -105 125 -43 18 -120 17 -164 -2z m111 -114 c30 -17
47 -61 55 -141 14 -156 -28 -239 -121 -239 -32 0 -51 7 -74 26 -37 31 -51 77
-51 169 0 139 35 195 122 195 27 0 58 -5 69 -10z"/>
<path d="M3355 2711 c-50 -23 -109 -86 -126 -137 -18 -54 -18 -246 0 -309 28
-96 124 -165 231 -165 106 0 203 69 230 164 17 62 18 237 1 298 -17 59 -72
125 -125 149 -54 25 -157 25 -211 0z m180 -123 c41 -32 55 -76 55 -173 0 -99
-15 -143 -58 -174 -41 -29 -110 -29 -147 1 -41 32 -55 76 -55 173 0 138 38
195 130 195 33 0 55 -6 75 -22z"/>
<path d="M3974 2711 c-89 -40 -109 -96 -109 -301 0 -141 2 -159 23 -201 14
-28 39 -58 64 -75 36 -25 50 -29 113 -29 61 0 77 4 113 28 l42 27 0 -50 c0
-84 -34 -127 -115 -144 -23 -5 -45 1 -87 22 l-57 28 -40 -30 c-22 -17 -40 -36
-41 -42 0 -15 61 -61 106 -80 20 -8 66 -15 101 -15 118 0 208 63 239 169 11
34 14 124 14 374 l0 328 -60 0 -60 0 0 -30 0 -31 -22 22 c-54 51 -150 64 -224
30z m212 -135 l34 -34 0 -126 0 -125 -35 -36 c-30 -29 -43 -35 -78 -35 -47 0
-93 26 -113 62 -20 34 -18 231 1 268 20 38 59 59 114 60 36 0 49 -6 77 -34z"/>
<path d="M2580 2410 l0 -310 60 0 60 0 0 310 0 310 -60 0 -60 0 0 -310z"/>
</g>
</svg>
