<?xml version="1.0" standalone="no"?>
<!DOCTYPE svg PUBLIC "-//W3C//DTD SVG 20010904//EN"
 "http://www.w3.org/TR/2001/REC-SVG-20010904/DTD/svg10.dtd">
<svg version="1.0"
    xmlns="http://www.w3.org/2000/svg" width="500.000000pt" height="500.000000pt" viewBox="0 0 500.000000 500.000000" preserveAspectRatio="xMidYMid meet">

    <g transform="translate(0.000000,500.000000) scale(0.100000,-0.100000)" fill="#000000" stroke="none">
        <path d="M1590 2520 l0 -200 225 0 225 0 0 30 0 30 -190 0 -190 0 0 55 0 55
165 0 165 0 0 30 0 30 -165 0 -165 0 0 55 0 55 190 0 190 0 0 30 0 30 -225 0
-225 0 0 -200z"/>
        <path d="M2090 2690 l0 -30 90 0 90 0 0 -170 0 -170 35 0 35 0 0 170 0 170 90
0 90 0 0 30 0 30 -215 0 -215 0 0 -30z"/>
        <path d="M2570 2570 c0 -169 8 -197 63 -230 28 -17 51 -20 172 -20 227 0 245
18 245 252 l0 148 -35 0 -35 0 0 -154 c0 -130 -2 -156 -17 -167 -11 -10 -55
-15 -149 -17 -131 -3 -134 -3 -159 22 -24 25 -25 28 -25 171 l0 145 -30 0 -30
0 0 -150z"/>
        <path d="M3150 2520 l0 -200 30 0 30 0 0 136 0 137 98 -136 c58 -81 104 -137
114 -137 10 0 53 51 110 130 51 71 96 130 101 130 4 0 7 -58 7 -130 l0 -130
30 0 30 0 0 201 0 200 -27 -3 c-22 -2 -47 -31 -137 -155 -60 -84 -113 -150
-117 -147 -5 3 -57 72 -116 154 -84 118 -112 150 -130 150 l-23 0 0 -200z"/>
        <path d="M3810 2520 l0 -200 225 0 225 0 0 30 0 30 -192 2 -193 3 -3 53 -3 52
170 0 171 0 0 30 0 30 -167 2 -168 3 0 50 0 50 193 3 192 2 0 30 0 30 -225 0
-225 0 0 -200z"/>
        <path d="M4360 2519 l0 -200 201 3 201 3 34 37 34 38 0 116 c0 195 -13 204
-284 204 l-186 0 0 -201z m390 121 c17 -17 20 -33 20 -119 0 -96 -1 -100 -26
-120 -24 -19 -40 -21 -175 -21 l-149 0 0 140 0 140 155 0 c142 0 157 -2 175
-20z"/>
    </g>
</svg>
