<svg width="73" height="73" viewBox="0 0 73 73" fill="none" xmlns="http://www.w3.org/2000/svg">
<circle cx="36.5" cy="36.5" r="36.5" fill="#D6E4E5"/>
<path opacity="0.2" d="M54.25 24.0625V47.0625C54.25 47.4437 54.0985 47.8094 53.829 48.079C53.5594 48.3486 53.1937 48.5 52.8125 48.5H42.1265C41.8783 48.4999 41.6344 48.5641 41.4183 48.6863C41.2023 48.8084 41.0216 48.9845 40.8938 49.1972L38.2327 53.5528C38.1049 53.7657 37.9243 53.9418 37.7083 54.0641C37.4922 54.1865 37.2482 54.2507 37 54.2507C36.7518 54.2507 36.5078 54.1865 36.2917 54.0641C36.0757 53.9418 35.8951 53.7657 35.7673 53.5528L33.1062 49.1972C32.9784 48.9845 32.7977 48.8084 32.5817 48.6863C32.3656 48.5641 32.1217 48.4999 31.8735 48.5H21.1875C20.8063 48.5 20.4406 48.3486 20.171 48.079C19.9015 47.8094 19.75 47.4437 19.75 47.0625V24.0625C19.75 23.6813 19.9015 23.3156 20.171 23.046C20.4406 22.7765 20.8063 22.625 21.1875 22.625H52.8125C53.1937 22.625 53.5594 22.7765 53.829 23.046C54.0985 23.3156 54.25 23.6813 54.25 24.0625Z" fill="#497174"/>
<path d="M29.8125 32.6875C29.8125 32.3063 29.964 31.9406 30.2335 31.671C30.5031 31.4015 30.8688 31.25 31.25 31.25H42.75C43.1312 31.25 43.4969 31.4015 43.7665 31.671C44.0361 31.9406 44.1875 32.3063 44.1875 32.6875C44.1875 33.0687 44.0361 33.4344 43.7665 33.704C43.4969 33.9736 43.1312 34.125 42.75 34.125H31.25C30.8688 34.125 30.5031 33.9736 30.2335 33.704C29.964 33.4344 29.8125 33.0687 29.8125 32.6875ZM31.25 39.875H42.75C43.1312 39.875 43.4969 39.7236 43.7665 39.454C44.0361 39.1844 44.1875 38.8188 44.1875 38.4375C44.1875 38.0563 44.0361 37.6906 43.7665 37.421C43.4969 37.1515 43.1312 37 42.75 37H31.25C30.8688 37 30.5031 37.1515 30.2335 37.421C29.964 37.6906 29.8125 38.0563 29.8125 38.4375C29.8125 38.8188 29.964 39.1844 30.2335 39.454C30.5031 39.7236 30.8688 39.875 31.25 39.875ZM55.6875 24.0625V47.0625C55.6875 47.825 55.3846 48.5563 54.8454 49.0954C54.3063 49.6346 53.575 49.9375 52.8125 49.9375H42.1265L39.4599 54.3021C39.2032 54.7261 38.8413 55.0765 38.4093 55.3193C37.9773 55.5621 37.4899 55.6892 36.9943 55.6881C36.4987 55.687 36.0118 55.5578 35.5808 55.3131C35.1499 55.0684 34.7895 54.7164 34.5347 54.2913L31.8735 49.9375H21.1875C20.425 49.9375 19.6937 49.6346 19.1546 49.0954C18.6154 48.5563 18.3125 47.825 18.3125 47.0625V24.0625C18.3125 23.3 18.6154 22.5687 19.1546 22.0296C19.6937 21.4904 20.425 21.1875 21.1875 21.1875H52.8125C53.575 21.1875 54.3063 21.4904 54.8454 22.0296C55.3846 22.5687 55.6875 23.3 55.6875 24.0625ZM52.8125 24.0625H21.1875V47.0625H31.8735C32.3685 47.0638 32.8548 47.1922 33.2858 47.4354C33.7169 47.6786 34.0782 48.0285 34.3352 48.4515L37 52.8125L39.663 48.4425C39.9211 48.0208 40.2832 47.6725 40.7145 47.4308C41.1459 47.1892 41.6321 47.0624 42.1265 47.0625H52.8125V24.0625Z" fill="#497174"/>
</svg>
