<svg width="73" height="73" viewBox="0 0 73 73" fill="none" xmlns="http://www.w3.org/2000/svg">
<circle cx="36.5" cy="36.5" r="36.5" fill="#D6E4E5"/>
<path opacity="0.2" d="M54.25 35.2588V49.9375C54.25 50.3187 54.0986 50.6843 53.829 50.9539C53.5594 51.2235 53.1937 51.375 52.8125 51.375H21.1875C20.8063 51.375 20.4406 51.2235 20.171 50.9539C19.9015 50.6843 19.75 50.3187 19.75 49.9375V35.2588C24.9924 38.2915 30.9436 39.8841 37 39.875C43.0565 39.8846 49.0078 38.292 54.25 35.2588Z" fill="#497174"/>
<path d="M32.6875 34.125C32.6875 33.7438 32.839 33.3781 33.1085 33.1085C33.3781 32.839 33.7438 32.6875 34.125 32.6875H39.875C40.2562 32.6875 40.6219 32.839 40.8915 33.1085C41.1611 33.3781 41.3125 33.7438 41.3125 34.125C41.3125 34.5062 41.1611 34.8719 40.8915 35.1415C40.6219 35.411 40.2562 35.5625 39.875 35.5625H34.125C33.7438 35.5625 33.3781 35.411 33.1085 35.1415C32.839 34.8719 32.6875 34.5062 32.6875 34.125ZM55.6875 26.9375V49.9375C55.6875 50.7 55.3846 51.4313 54.8454 51.9704C54.3063 52.5096 53.575 52.8125 52.8125 52.8125H21.1875C20.425 52.8125 19.6937 52.5096 19.1546 51.9704C18.6154 51.4313 18.3125 50.7 18.3125 49.9375V26.9375C18.3125 26.175 18.6154 25.4437 19.1546 24.9046C19.6937 24.3654 20.425 24.0625 21.1875 24.0625H28.375V22.625C28.375 21.4813 28.8294 20.3844 29.6381 19.5756C30.4469 18.7669 31.5438 18.3125 32.6875 18.3125H41.3125C42.4562 18.3125 43.5531 18.7669 44.3619 19.5756C45.1706 20.3844 45.625 21.4813 45.625 22.625V24.0625H52.8125C53.575 24.0625 54.3063 24.3654 54.8454 24.9046C55.3846 25.4437 55.6875 26.175 55.6875 26.9375ZM31.25 24.0625H42.75V22.625C42.75 22.2438 42.5986 21.8781 42.329 21.6085C42.0594 21.339 41.6937 21.1875 41.3125 21.1875H32.6875C32.3063 21.1875 31.9406 21.339 31.671 21.6085C31.4015 21.8781 31.25 22.2438 31.25 22.625V24.0625ZM21.1875 26.9375V34.4161C26.0398 37.056 31.4761 38.4385 37 38.4375C42.5242 38.4385 47.9605 37.0553 52.8125 34.4143V26.9375H21.1875ZM52.8125 49.9375V37.6523C47.8892 40.0607 42.4808 41.3126 37 41.3125C31.5193 41.3136 26.1108 40.0622 21.1875 37.6541V49.9375H52.8125Z" fill="#497174"/>
</svg>
