<svg width="73" height="73" viewBox="0 0 73 73" fill="none" xmlns="http://www.w3.org/2000/svg">
<circle cx="36.5" cy="36.5" r="36.5" fill="#D6E4E5"/>
<path opacity="0.2" d="M49.2188 33.8438L33.108 49.9545C32.8386 50.2236 32.4735 50.3748 32.0927 50.375H22.625V40.9073C22.6252 40.5265 22.7764 40.1614 23.0455 39.892L39.1562 23.7812L49.2188 33.8438Z" fill="#497174"/>
<path d="M56.7044 24.9205L48.0794 16.2955C47.9458 16.1619 47.7872 16.056 47.6127 15.9837C47.4382 15.9114 47.2512 15.8742 47.0623 15.8742C46.8734 15.8742 46.6864 15.9114 46.5119 15.9837C46.3374 16.056 46.1789 16.1619 46.0453 16.2955C45.9117 16.429 45.8058 16.5876 45.7335 16.7621C45.6612 16.9366 45.624 17.1236 45.624 17.3125C45.624 17.5014 45.6612 17.6884 45.7335 17.8629C45.8058 18.0374 45.9117 18.196 46.0453 18.3295L49.3426 21.625L44.1873 26.7802L38.0169 20.608C37.7471 20.3382 37.3813 20.1867 36.9998 20.1867C36.6184 20.1867 36.2525 20.3382 35.9828 20.608C35.7131 20.8777 35.5615 21.2435 35.5615 21.625C35.5615 22.0065 35.7131 22.3723 35.9828 22.642L37.1238 23.7813L22.0301 38.875C21.7619 39.141 21.5493 39.4577 21.4047 39.8065C21.26 40.1554 21.1861 40.5296 21.1873 40.9073V49.7802L17.2953 53.6705C17.1617 53.804 17.0558 53.9626 16.9835 54.1371C16.9112 54.3116 16.874 54.4986 16.874 54.6875C16.874 54.8764 16.9112 55.0634 16.9835 55.2379C17.0558 55.4124 17.1617 55.571 17.2953 55.7045C17.565 55.9743 17.9309 56.1258 18.3123 56.1258C18.5012 56.1258 18.6882 56.0886 18.8627 56.0163C19.0372 55.944 19.1958 55.8381 19.3294 55.7045L23.2196 51.8125H32.0926C32.4702 51.8137 32.8444 51.7398 33.1933 51.5952C33.5422 51.4505 33.8588 51.2379 34.1248 50.9698L49.2186 35.876L50.3578 37.017C50.4914 37.1506 50.6499 37.2565 50.8244 37.3288C50.9989 37.4011 51.1859 37.4383 51.3748 37.4383C51.5637 37.4383 51.7507 37.4011 51.9252 37.3288C52.0997 37.2565 52.2583 37.1506 52.3919 37.017C52.5254 36.8835 52.6314 36.7249 52.7036 36.5504C52.7759 36.3759 52.8131 36.1889 52.8131 36C52.8131 35.8111 52.7759 35.6241 52.7036 35.4496C52.6314 35.2751 52.5254 35.1165 52.3919 34.983L46.2196 28.8125L51.3748 23.6573L54.6703 26.9545C54.94 27.2243 55.3059 27.3758 55.6873 27.3758C56.0688 27.3758 56.4346 27.2243 56.7044 26.9545C56.9741 26.6848 57.1256 26.319 57.1256 25.9375C57.1256 25.556 56.9741 25.1902 56.7044 24.9205ZM32.0926 48.9375H24.0623V40.9073L27.2967 37.6729L30.9515 41.3295C31.0851 41.4631 31.2437 41.569 31.4182 41.6413C31.5927 41.7136 31.7797 41.7508 31.9686 41.7508C32.1575 41.7508 32.3445 41.7136 32.519 41.6413C32.6935 41.569 32.852 41.4631 32.9856 41.3295C33.1192 41.196 33.2251 41.0374 33.2974 40.8629C33.3697 40.6884 33.4069 40.5014 33.4069 40.3125C33.4069 40.1236 33.3697 39.9366 33.2974 39.7621C33.2251 39.5876 33.1192 39.429 32.9856 39.2955L29.329 35.6406L31.6092 33.3604L35.264 37.017C35.5338 37.2868 35.8996 37.4383 36.2811 37.4383C36.6625 37.4383 37.0284 37.2868 37.2981 37.017C37.5678 36.7473 37.7194 36.3815 37.7194 36C37.7194 35.6185 37.5678 35.2527 37.2981 34.983L33.6415 31.3281L39.1561 25.8135L47.1863 33.8438L32.0926 48.9375Z" fill="#497174"/>
</svg>
