<svg width="20" height="32" viewBox="0 0 20 32" fill="none" xmlns="http://www.w3.org/2000/svg">
<path d="M19.3072 0.632413C19.7691 1.05402 20 1.5532 20 2.12996C20 2.7056 19.7691 3.20422 19.3072 3.62582L5.7737 15.9789L19.3534 28.3742C19.7845 28.7677 20 29.2596 20 29.8498C20 30.4401 19.7691 30.946 19.3072 31.3676C18.8453 31.7892 18.2984 32 17.6665 32C17.0359 32 16.4896 31.7892 16.0277 31.3676L0.508114 17.1594C0.323356 16.9908 0.19218 16.8081 0.114582 16.6113C0.0382151 16.4146 3.13502e-05 16.2038 3.13286e-05 15.9789C3.13071e-05 15.7541 0.038215 15.5433 0.114581 15.3465C0.19218 15.1498 0.323356 14.9671 0.508114 14.7984L16.0739 0.590253C16.505 0.196753 17.0359 2.0817e-06 17.6665 2.03138e-06C18.2984 1.98096e-06 18.8453 0.210806 19.3072 0.632413Z" fill="#497174"/>
</svg>
